STARTFONT 2.3
FONT -FontForge-Henny Penny-Book-R-Normal--11-110-72-72-P-63-ISO10646-1
SIZE 11 72 72  4
FONTBOUNDINGBOX 16 20 -2 -7
COMMENT "Generated by fontforge, http://fontforge.sourceforge.net"
COMMENT "Copyright (c) 2012, Brownfox (gayaneh.b@gmail.com), with Reserved Font Name "Henny Penny""
STARTPROPERTIES 40
FOUNDRY "FontForge"
FAMILY_NAME "Henny Penny"
WEIGHT_NAME "Book"
SLANT "R"
SETWIDTH_NAME "Normal"
ADD_STYLE_NAME ""
PIXEL_SIZE 11
POINT_SIZE 110
RESOLUTION_X 72
RESOLUTION_Y 72
SPACING "P"
AVERAGE_WIDTH 63
CHARSET_REGISTRY "ISO10646"
CHARSET_ENCODING "1"
FONTNAME_REGISTRY ""
CHARSET_COLLECTIONS "ISO10646-1"
BITS_PER_PIXEL 4
FONT_NAME "HennyPenny-Regular"
FACE_NAME "Henny Penny"
COPYRIGHT "Copyright (c) 2012, Brownfox (gayaneh.b@gmail.com), with Reserved Font Name "Henny Penny""
FONT_VERSION "1.001"
FONT_ASCENT 9
FONT_DESCENT 2
UNDERLINE_POSITION -1
UNDERLINE_THICKNESS 1
X_HEIGHT 6
CAP_HEIGHT 8
RAW_ASCENT 799
RAW_DESCENT 200
NORM_SPACE 3
RELATIVE_WEIGHT 40
RELATIVE_SETWIDTH 50
SUPERSCRIPT_X 0
SUPERSCRIPT_Y 3
SUPERSCRIPT_SIZE 6
SUBSCRIPT_X 0
SUBSCRIPT_Y 0
SUBSCRIPT_SIZE 6
AVG_LOWERCASE_WIDTH 55
AVG_UPPERCASE_WIDTH 79
ENDPROPERTIES
CHARS 233
STARTCHAR space
ENCODING 32
SWIDTH 270 0
DWIDTH 3 0
BBX 1 1 0 0
BITMAP
00
ENDCHAR
STARTCHAR exclam
ENCODING 33
SWIDTH 249 0
DWIDTH 3 0
BBX 3 10 0 0
BITMAP
5D10
6F20
4F20
1F10
0E00
0B00
0800
0500
0100
4C00
ENDCHAR
STARTCHAR quotedbl
ENCODING 34
SWIDTH 292 0
DWIDTH 3 0
BBX 3 4 0 5
BITMAP
6590
6690
3580
1350
ENDCHAR
STARTCHAR numbersign
ENCODING 35
SWIDTH 1030 0
DWIDTH 11 0
BBX 11 13 0 -4
BITMAP
000000400000
000004130000
000006060000
255588953210
000071801220
000255201000
135B8B454000
144953000000
008280000000
019350000000
012800000000
001700000000
001100000000
ENDCHAR
STARTCHAR dollar
ENCODING 36
SWIDTH 799 0
DWIDTH 9 0
BBX 7 14 1 -3
BITMAP
00001000
00005030
008EED30
03F36B00
04F63300
01DF3000
004FD100
0009F800
13058E00
36413E00
8D719A00
35EEB200
00500000
00100000
ENDCHAR
STARTCHAR percent
ENCODING 37
SWIDTH 789 0
DWIDTH 9 0
BBX 9 10 0 0
BITMAP
0BEA001400
5B1B407000
5D1A362000
0BE9450000
0001700000
0008000000
00622CE900
0350A71C40
1700B61C40
60004DE800
ENDCHAR
STARTCHAR ampersand
ENCODING 38
SWIDTH 773 0
DWIDTH 9 0
BBX 9 11 0 -1
BITMAP
00AE900000
0581B00000
0734700000
06BB000000
06F203A400
2ED5318400
8D3D107200
9D09A08000
5F71DB3000
08DEAEB820
000002C700
ENDCHAR
STARTCHAR quotesingle
ENCODING 39
SWIDTH 174 0
DWIDTH 2 0
BBX 2 3 0 6
BITMAP
64
55
13
ENDCHAR
STARTCHAR parenleft
ENCODING 40
SWIDTH 431 0
DWIDTH 5 0
BBX 5 16 0 -5
BITMAP
005000
062000
0A0000
480000
860000
B50000
C40000
D50000
C70000
9A0000
5E0000
0D4000
05B000
00A500
001A20
000040
ENDCHAR
STARTCHAR parenright
ENCODING 41
SWIDTH 443 0
DWIDTH 5 0
BBX 5 12 0 -3
BITMAP
110000
097000
00A800
001E30
000A80
0008B0
0007B0
000980
000E20
008700
087000
420000
ENDCHAR
STARTCHAR asterisk
ENCODING 42
SWIDTH 490 0
DWIDTH 5 0
BBX 5 5 0 5
BITMAP
00B110
117690
3A9900
058950
010150
ENDCHAR
STARTCHAR plus
ENCODING 43
SWIDTH 440 0
DWIDTH 5 0
BBX 5 7 0 0
BITMAP
003000
005000
006200
6FFD20
006000
005100
002100
ENDCHAR
STARTCHAR comma
ENCODING 44
SWIDTH 251 0
DWIDTH 3 0
BBX 3 4 0 -2
BITMAP
5E10
3F30
0900
1400
ENDCHAR
STARTCHAR hyphen
ENCODING 45
SWIDTH 436 0
DWIDTH 5 0
BBX 5 2 0 2
BITMAP
110100
3DFD20
ENDCHAR
STARTCHAR period
ENCODING 46
SWIDTH 238 0
DWIDTH 3 0
BBX 2 2 0 0
BITMAP
4D
4D
ENDCHAR
STARTCHAR slash
ENCODING 47
SWIDTH 690 0
DWIDTH 8 0
BBX 8 11 0 0
BITMAP
00000001
00000043
00000170
00000810
00006300
00036000
00180000
00710000
04400000
16000000
70000000
ENDCHAR
STARTCHAR zero
ENCODING 48
SWIDTH 723 0
DWIDTH 8 0
BBX 8 8 0 1
BITMAP
02BEEA20
2E6129D1
990000D8
C600009C
C700008C
9C0000A9
2EA216E2
02AEEB20
ENDCHAR
STARTCHAR one
ENCODING 49
SWIDTH 505 0
DWIDTH 6 0
BBX 6 10 0 -1
BITMAP
007000
02E100
3DF400
A5D600
009900
007C00
005F00
004F60
02BFF5
1D7200
ENDCHAR
STARTCHAR two
ENCODING 50
SWIDTH 534 0
DWIDTH 6 0
BBX 6 10 0 -1
BITMAP
09ED40
631CE0
5007E0
400890
000A10
005200
021000
6E9315
03CFF2
0007A0
ENDCHAR
STARTCHAR three
ENCODING 51
SWIDTH 511 0
DWIDTH 6 0
BBX 6 10 0 -1
BITMAP
220000
7FFE60
520510
002200
008910
0008D1
3000D8
7000B9
7614F5
09EE80
ENDCHAR
STARTCHAR four
ENCODING 52
SWIDTH 712 0
DWIDTH 8 0
BBX 8 11 0 -2
BITMAP
00007000
00079000
0048A000
0423D000
5401F100
7B61D500
004AEB62
00008E90
00005E10
0003CFB2
00000146
ENDCHAR
STARTCHAR five
ENCODING 53
SWIDTH 757 0
DWIDTH 8 0
BBX 9 11 0 -1
BITMAP
0000000010
0000C91530
00054CFC00
0015008400
0059610000
00018E2000
40000C9000
50000BB000
70001E8000
8612AE1000
19EEB20000
ENDCHAR
STARTCHAR six
ENCODING 54
SWIDTH 598 0
DWIDTH 7 0
BBX 7 9 0 0
BITMAP
02BFD700
1DA11640
7E100000
BCAED500
CF414E20
BA000960
8B000950
2E614D10
03BEC400
ENDCHAR
STARTCHAR seven
ENCODING 55
SWIDTH 507 0
DWIDTH 6 0
BBX 6 10 0 -1
BITMAP
210133
EFFFE2
812670
300410
000700
006400
00D000
05C000
0BB000
010000
ENDCHAR
STARTCHAR eight
ENCODING 56
SWIDTH 476 0
DWIDTH 5 0
BBX 6 9 0 0
BITMAP
0AEC20
6F2260
7F3130
1DE800
19BF60
8103E1
B000C2
B513D0
3CEC30
ENDCHAR
STARTCHAR nine
ENCODING 57
SWIDTH 601 0
DWIDTH 7 0
BBX 7 8 0 0
BITMAP
09EEA200
8B12CD00
C5004F50
C6002F70
8D317F60
19EECF20
0002A900
4CFD8000
ENDCHAR
STARTCHAR colon
ENCODING 58
SWIDTH 246 0
DWIDTH 3 0
BBX 3 5 0 0
BITMAP
4D00
5D00
0000
3E10
3E10
ENDCHAR
STARTCHAR semicolon
ENCODING 59
SWIDTH 266 0
DWIDTH 3 0
BBX 3 7 0 -2
BITMAP
2E30
2E30
0000
0000
4E20
1D10
2400
ENDCHAR
STARTCHAR less
ENCODING 60
SWIDTH 522 0
DWIDTH 6 0
BBX 5 6 0 0
BITMAP
000260
005500
292000
068200
001770
000010
ENDCHAR
STARTCHAR equal
ENCODING 61
SWIDTH 655 0
DWIDTH 7 0
BBX 7 3 0 2
BITMAP
0148BE90
26532100
5FEDC900
ENDCHAR
STARTCHAR greater
ENCODING 62
SWIDTH 533 0
DWIDTH 6 0
BBX 6 6 0 0
BITMAP
162000
006600
0001A1
000650
017200
020000
ENDCHAR
STARTCHAR question
ENCODING 63
SWIDTH 564 0
DWIDTH 6 0
BBX 6 10 0 -1
BITMAP
07DEB2
5B12DA
A8009C
BE21D8
6E4B90
018300
050000
0A9000
000000
04A000
ENDCHAR
STARTCHAR at
ENCODING 64
SWIDTH 898 0
DWIDTH 10 0
BBX 10 11 0 -3
BITMAP
0018DFD800
01B7212890
093AFBF272
168A17F115
51D401F006
60D502F015
60AB18E381
432CF96E70
09001E4000
06A2096000
006DEA1000
ENDCHAR
STARTCHAR A
ENCODING 65
SWIDTH 784 0
DWIDTH 9 0
BBX 9 10 0 -1
BITMAP
01EFC00000
0009F30000
0007B80000
00347D0000
00723F3000
00BEDF8000
02804DE000
092005F400
EF6001EC10
14600FFFB0
ENDCHAR
STARTCHAR B
ENCODING 66
SWIDTH 685 0
DWIDTH 8 0
BBX 8 11 0 -2
BITMAP
38ADFC10
07B04F60
04B00D30
02D26300
02FDEE50
02E009F2
02F101F5
02F201F5
03F618E1
08FFFC30
64000000
ENDCHAR
STARTCHAR C
ENCODING 67
SWIDTH 742 0
DWIDTH 8 0
BBX 8 11 0 -1
BITMAP
00000013
00000034
02AEFDE4
2DC313C6
8E100017
CC000000
EB000000
DD000004
8F500007
1DE61167
019DFD70
ENDCHAR
STARTCHAR D
ENCODING 68
SWIDTH 726 0
DWIDTH 8 0
BBX 8 9 0 -2
BITMAP
8BBDFD70
1CA119F6
079000DB
06A000BC
05B000D9
06E218E2
09FFD920
2E820000
92000000
ENDCHAR
STARTCHAR E
ENCODING 69
SWIDTH 557 0
DWIDTH 6 0
BBX 7 11 0 -2
BITMAP
5458C700
4F810500
0D800000
0B912000
09FE1000
07A51000
05B10000
04C00110
04E00810
BFFEEE00
00124300
ENDCHAR
STARTCHAR F
ENCODING 70
SWIDTH 533 0
DWIDTH 6 0
BBX 7 10 0 0
BITMAP
0036AE10
8FE20B00
0AD00600
07E01100
04E33000
03FF3000
01F33000
00F12000
03F20000
9DBE0000
ENDCHAR
STARTCHAR G
ENCODING 71
SWIDTH 750 0
DWIDTH 8 0
BBX 9 8 0 0
BITMAP
0000000320
02AEE60800
3EA204E500
AD00009000
EA00016700
DC00EEF700
7F7104F300
06DFEA6300
ENDCHAR
STARTCHAR H
ENCODING 72
SWIDTH 743 0
DWIDTH 8 0
BBX 9 13 0 -3
BITMAP
3300000000
0AFF614710
08C08FF900
07B003F200
07B000F200
07B003F100
07FEEEF100
08C101F100
08C000E100
08C001E200
0AC05FFD00
9FF4010100
3111000000
ENDCHAR
STARTCHAR I
ENCODING 73
SWIDTH 438 0
DWIDTH 5 0
BBX 7 12 -1 -2
BITMAP
2DCCDF50
02BF7000
007F1000
007D0000
007B0000
006A0000
00780000
00770000
00770000
00880000
06FFC000
47200000
ENDCHAR
STARTCHAR J
ENCODING 74
SWIDTH 628 0
DWIDTH 7 0
BBX 8 13 0 -3
BITMAP
000025A5
007FFE60
0003FA00
0000C900
0000A900
00009800
00009700
0000A600
0000C400
0000E100
8E55A000
EFAD3000
7FC40000
ENDCHAR
STARTCHAR K
ENCODING 75
SWIDTH 866 0
DWIDTH 10 0
BBX 10 11 0 -1
BITMAP
0134241000
DFE41EFD00
0D901A2000
0A91910000
09BC700000
08EAE10000
07A2EA0025
06B04FB318
06C003BED4
1EF9000000
0015000000
ENDCHAR
STARTCHAR L
ENCODING 76
SWIDTH 660 0
DWIDTH 7 0
BBX 7 9 0 0
BITMAP
32000000
7DFEE000
02FA0000
01F60000
01F50000
01F30130
02F40280
5DFFFFE0
23210000
ENDCHAR
STARTCHAR M
ENCODING 77
SWIDTH 1089 0
DWIDTH 12 0
BBX 13 9 0 -1
BITMAP
000000000DF400
01B950006D2000
0059D3006C0000
00076D111E0000
00060DA20D3000
000405C00A8000
0002002008E300
D82000001DFF30
BD200000431000
ENDCHAR
STARTCHAR N
ENCODING 78
SWIDTH 799 0
DWIDTH 9 0
BBX 9 11 0 -3
BITMAP
0110000120
EFE407FF90
09FF404700
064FF41500
0506FE7400
05007FF400
050008F300
0500009200
0A30000000
CFE4000000
0032000000
ENDCHAR
STARTCHAR O
ENCODING 79
SWIDTH 747 0
DWIDTH 8 0
BBX 9 8 0 0
BITMAP
03BEEB3000
2E612AF400
AA0000DD00
E700008F20
D800007F10
AD00009D00
2FA215E500
02BEEC4000
ENDCHAR
STARTCHAR P
ENCODING 80
SWIDTH 623 0
DWIDTH 7 0
BBX 7 9 0 -1
BITMAP
EFFFFD40
05F71AB0
00E307C0
00E31C80
00EEFA10
00F30000
01F40000
03F60000
3CFD6100
ENDCHAR
STARTCHAR Q
ENCODING 81
SWIDTH 804 0
DWIDTH 9 0
BBX 13 13 0 -5
BITMAP
018DFD70000000
0C7117FA000000
8A00006F500000
D600000D900000
E600000AA00000
D9006E8B800000
8E2081AF300000
1DD452AD000000
019EEC7F400000
0000000D900000
00000009E10040
00000003FB1440
000000006DE800
ENDCHAR
STARTCHAR R
ENCODING 82
SWIDTH 869 0
DWIDTH 10 0
BBX 10 9 0 -1
BITMAP
EFFFFB1000
1AF31D8000
05E14E9000
03FFFF4000
01E0E70000
00F08B0004
02F31DA317
8FFC11AED4
0003100000
ENDCHAR
STARTCHAR S
ENCODING 83
SWIDTH 517 0
DWIDTH 6 0
BBX 6 11 0 -1
BITMAP
000002
02BE35
08A175
089013
02E300
004E20
1007D1
6000D7
A100AB
9921D8
40AEA1
ENDCHAR
STARTCHAR T
ENCODING 84
SWIDTH 659 0
DWIDTH 7 0
BBX 8 11 0 -1
BITMAP
BFFFFFF8
A202D058
6102D005
1303D000
0004D000
0005D000
0006D000
0007D000
0009F300
004FFFC0
01A41000
ENDCHAR
STARTCHAR U
ENCODING 85
SWIDTH 690 0
DWIDTH 8 0
BBX 9 8 0 0
BITMAP
136B900000
EFF8AEDD20
1CF103C000
0AE0007000
09E0006000
07F1006000
02F9165000
005DE90000
ENDCHAR
STARTCHAR V
ENCODING 86
SWIDTH 798 0
DWIDTH 9 0
BBX 10 9 0 0
BITMAP
0014600000
DFFC300003
04EA0014C7
005F23FF70
000CA00900
0005F44200
0000DD7000
00006F3000
0000190000
ENDCHAR
STARTCHAR W
ENCODING 87
SWIDTH 1120 0
DWIDTH 12 0
BBX 15 10 -1 -1
BITMAP
0000000000252000
00000000001BFF90
000610000000C100
16CA000000044000
008D007700070000
001F417F30250000
000CB60BC0700000
0007F404FA500000
0001B000CD000000
0000000055000000
ENDCHAR
STARTCHAR X
ENCODING 88
SWIDTH 868 0
DWIDTH 10 0
BBX 10 10 0 -1
BITMAP
0013600000
EFFFB02200
029F900CC0
0008F33710
0000BD7000
00008D8000
000522E200
0167006A00
9FF90CFF91
0138000012
ENDCHAR
STARTCHAR Y
ENCODING 89
SWIDTH 796 0
DWIDTH 9 0
BBX 10 12 0 -2
BITMAP
0136002410
CFE6002DFA
18F4000710
007E406000
0009FB2000
0000D90000
0000980000
0000980000
0000A90000
0001DB0000
005FFF5000
0000134000
ENDCHAR
STARTCHAR Z
ENCODING 90
SWIDTH 627 0
DWIDTH 7 0
BBX 8 10 0 -2
BITMAP
33102100
5FFFF100
640DA000
402F3000
006C0000
00A60030
00E10060
04A004C0
0ABADFF1
0A842010
ENDCHAR
STARTCHAR bracketleft
ENCODING 91
SWIDTH 344 0
DWIDTH 4 0
BBX 4 11 0 -2
BITMAP
1EA3
3E11
5B00
7900
8800
A800
B700
C700
D700
DA00
9FF6
ENDCHAR
STARTCHAR backslash
ENCODING 92
SWIDTH 347 0
DWIDTH 4 0
BBX 4 13 0 -2
BITMAP
2000
6000
6000
2400
0600
0600
0520
0160
0070
0070
0034
0006
0002
ENDCHAR
STARTCHAR bracketright
ENCODING 93
SWIDTH 334 0
DWIDTH 4 0
BBX 4 11 0 -3
BITMAP
0020
4EE0
14F0
03F2
02F3
01F5
01F6
00F7
01F8
08B3
5300
ENDCHAR
STARTCHAR asciicircum
ENCODING 94
SWIDTH 658 0
DWIDTH 7 0
BBX 7 3 0 6
BITMAP
003C1000
06DBE600
5A105C80
ENDCHAR
STARTCHAR underscore
ENCODING 95
SWIDTH 678 0
DWIDTH 7 0
BBX 7 2 0 -4
BITMAP
158ACEC0
24321100
ENDCHAR
STARTCHAR grave
ENCODING 96
SWIDTH 278 0
DWIDTH 3 0
BBX 3 2 0 8
BITMAP
4900
0640
ENDCHAR
STARTCHAR a
ENCODING 97
SWIDTH 527 0
DWIDTH 6 0
BBX 7 8 0 -1
BITMAP
0BE80000
473E3000
2D2C7000
000A9000
4CFFC000
C718E000
7EC5F520
0000BD00
ENDCHAR
STARTCHAR b
ENCODING 98
SWIDTH 582 0
DWIDTH 6 0
BBX 8 13 -1 -1
BITMAP
03700000
DFB00000
06B00000
03C00000
02C00000
01D00000
01E00000
00F6DE60
00F517F1
00E301F3
00E817E1
03FFFD50
1D621000
ENDCHAR
STARTCHAR c
ENCODING 99
SWIDTH 437 0
DWIDTH 5 0
BBX 5 6 0 1
BITMAP
08ED20
673E40
B20000
C30150
8B1270
1BEC20
ENDCHAR
STARTCHAR d
ENCODING 100
SWIDTH 523 0
DWIDTH 6 0
BBX 6 10 0 1
BITMAP
0004B0
005DE0
0004E0
0003E0
0003D0
0003D0
3CFDD0
BA12C0
BA13E1
3CFEDC
ENDCHAR
STARTCHAR e
ENCODING 101
SWIDTH 434 0
DWIDTH 5 0
BBX 5 6 0 0
BITMAP
08ED40
6A1980
BFFC20
C90050
8E3270
1AEC20
ENDCHAR
STARTCHAR f
ENCODING 102
SWIDTH 299 0
DWIDTH 3 0
BBX 7 15 -1 -2
BITMAP
0007EA00
002A1B20
00736E20
00A1DA00
01D22000
5EFE6000
00E30000
00E30000
00D30000
00D40000
00D40000
00D50000
00D80000
07FFB000
07200000
ENDCHAR
STARTCHAR g
ENCODING 103
SWIDTH 567 0
DWIDTH 6 0
BBX 8 11 -1 -4
BITMAP
00000BE4
01BFE6C5
07E24E00
08E15E00
01CFD500
00B10000
008FD920
06B13BB0
1E4003D0
1FA11970
06DFD700
ENDCHAR
STARTCHAR h
ENCODING 104
SWIDTH 566 0
DWIDTH 6 0
BBX 8 12 -1 -1
BITMAP
02770000
2EF60000
00940000
00930000
00A20000
00B10000
00C7EB00
00E72F40
01F10D50
04E00E50
5FFA8EE2
00001000
ENDCHAR
STARTCHAR i
ENCODING 105
SWIDTH 301 0
DWIDTH 3 0
BBX 4 7 0 1
BITMAP
0C40
CF70
1E50
0E30
0E20
1E30
BEF1
ENDCHAR
STARTCHAR j
ENCODING 106
SWIDTH 367 0
DWIDTH 4 0
BBX 6 12 -2 -6
BITMAP
0004C0
000021
005FF6
0003F9
00009B
00005C
00003C
00002B
0AE139
3B5076
2913C1
08ED30
ENDCHAR
STARTCHAR k
ENCODING 107
SWIDTH 567 0
DWIDTH 6 0
BBX 8 12 -1 -1
BITMAP
04B00000
AFF00000
01E00000
00D10000
00D24100
00C2CF60
00C38200
00CD5000
00BAA040
00B6E552
00D94DB0
2BCCE000
ENDCHAR
STARTCHAR l
ENCODING 108
SWIDTH 354 0
DWIDTH 4 0
BBX 5 11 -1 -1
BITMAP
003500
17E600
7BF600
00C700
00A800
009900
007900
005A00
005D10
05FFC0
001010
ENDCHAR
STARTCHAR m
ENCODING 109
SWIDTH 708 0
DWIDTH 8 0
BBX 8 6 0 1
BITMAP
04100000
4EAE8DC0
0A77A2F1
0A5EE1F0
7FC125F0
00100023
ENDCHAR
STARTCHAR n
ENCODING 110
SWIDTH 584 0
DWIDTH 6 0
BBX 7 8 0 -1
BITMAP
05000000
4E28E600
1D627D00
09803E00
05803D00
03A06B00
2EFBFA00
01112720
ENDCHAR
STARTCHAR o
ENCODING 111
SWIDTH 503 0
DWIDTH 6 0
BBX 6 5 0 1
BITMAP
19ED50
8C14F2
BA00D4
8E22D1
19ED50
ENDCHAR
STARTCHAR p
ENCODING 112
SWIDTH 509 0
DWIDTH 6 0
BBX 6 12 0 -6
BITMAP
174000
9FAEC1
0A81D5
0A40B6
0A72E2
0AEE70
0B6000
0B6000
0C6000
0D9000
9FF500
002200
ENDCHAR
STARTCHAR q
ENCODING 113
SWIDTH 505 0
DWIDTH 6 0
BBX 6 11 0 -5
BITMAP
3DECA1
B91970
B91970
4EED70
000870
000970
000970
000970
000A70
00FFD3
000275
ENDCHAR
STARTCHAR r
ENCODING 114
SWIDTH 414 0
DWIDTH 5 0
BBX 6 8 0 0
BITMAP
000BD1
BF65B1
0D8000
0B7000
0A8000
099000
0AC000
8FFC00
ENDCHAR
STARTCHAR s
ENCODING 115
SWIDTH 482 0
DWIDTH 5 0
BBX 6 9 0 -1
BITMAP
000010
03DD70
087170
039030
004900
0606A0
4800E3
4814F3
00AE80
ENDCHAR
STARTCHAR t
ENCODING 116
SWIDTH 434 0
DWIDTH 5 0
BBX 5 9 0 0
BITMAP
006300
03D000
AFFE10
0BA100
0E4000
2F1000
2F1000
1E7380
05ED40
ENDCHAR
STARTCHAR u
ENCODING 117
SWIDTH 744 0
DWIDTH 8 0
BBX 9 6 0 0
BITMAP
1750EF5000
BE800A7000
07A0088000
04E009B000
01F629FE20
007EB13100
ENDCHAR
STARTCHAR v
ENCODING 118
SWIDTH 600 0
DWIDTH 7 0
BBX 7 7 0 0
BITMAP
05900000
4CB00000
04F1BE60
00D61700
006C5100
000E8000
00073000
ENDCHAR
STARTCHAR w
ENCODING 119
SWIDTH 745 0
DWIDTH 8 0
BBX 9 6 0 0
BITMAP
1570005D20
DF80916400
0CC2E87000
07F65F7000
01F70A2000
0091000000
ENDCHAR
STARTCHAR x
ENCODING 120
SWIDTH 548 0
DWIDTH 6 0
BBX 7 6 0 1
BITMAP
02791000
FFE3ED20
07F55000
009D0000
02BF6000
6AAFFA00
ENDCHAR
STARTCHAR y
ENCODING 121
SWIDTH 659 0
DWIDTH 7 0
BBX 8 11 0 -5
BITMAP
15B40010
CF80DEE2
1F401D80
0C700C70
07D23D60
01BE8B40
00000C10
00000C00
05E45700
06C9C100
06EC3000
ENDCHAR
STARTCHAR z
ENCODING 122
SWIDTH 460 0
DWIDTH 5 0
BBX 6 6 0 -1
BITMAP
9EEF30
802900
40B100
096161
5FFFF0
210000
ENDCHAR
STARTCHAR braceleft
ENCODING 123
SWIDTH 460 0
DWIDTH 5 0
BBX 5 14 0 -3
BITMAP
006E90
00E200
01F000
00E300
00D600
02F500
6C7000
064000
00D000
00D300
00E400
00F400
00E740
007E90
ENDCHAR
STARTCHAR bar
ENCODING 124
SWIDTH 368 0
DWIDTH 4 0
BBX 2 12 1 -2
BITMAP
50
51
51
42
42
33
23
24
14
05
05
04
ENDCHAR
STARTCHAR braceright
ENCODING 125
SWIDTH 476 0
DWIDTH 5 0
BBX 5 12 0 -3
BITMAP
4ED200
72E900
00CA00
009A00
002A50
000560
000960
0006A0
0002E0
0000E0
0006B0
00CB20
ENDCHAR
STARTCHAR asciitilde
ENCODING 126
SWIDTH 733 0
DWIDTH 8 0
BBX 8 2 0 2
BITMAP
08EB4145
3317DE90
ENDCHAR
STARTCHAR nonbreakingspace
ENCODING 160
SWIDTH 270 0
DWIDTH 3 0
BBX 1 1 0 0
BITMAP
00
ENDCHAR
STARTCHAR exclamdown
ENCODING 161
SWIDTH 247 0
DWIDTH 3 0
BBX 3 11 0 -1
BITMAP
5C00
0000
0500
0900
0C00
0E00
1F00
3F10
4F20
5F20
3D00
ENDCHAR
STARTCHAR cent
ENCODING 162
SWIDTH 799 0
DWIDTH 9 0
BBX 6 10 1 -2
BITMAP
001000
004000
01AEC3
0AB25B
1F247A
2F1500
0D9527
03CED2
000060
000050
ENDCHAR
STARTCHAR sterling
ENCODING 163
SWIDTH 799 0
DWIDTH 9 0
BBX 7 10 1 -1
BITMAP
007ED400
05C18B00
0981E700
09A00000
07F42000
23E90000
007E0000
002F1000
1DEE3040
2EE7CE50
ENDCHAR
STARTCHAR currency
ENCODING 164
SWIDTH 732 0
DWIDTH 8 0
BBX 8 9 0 0
BITMAP
00000100
10002600
19BFF800
0A302930
17000340
1B203A10
08FFB910
08300072
05000000
ENDCHAR
STARTCHAR yen
ENCODING 165
SWIDTH 799 0
DWIDTH 9 0
BBX 9 12 0 -2
BITMAP
0003200000
6FFC002750
03DE19F710
003F804000
0007F80000
0001EA0000
00AEFFFF20
0036EFE100
0000C70000
0000E90000
003BFFB000
0067310000
ENDCHAR
STARTCHAR brokenbar
ENCODING 166
SWIDTH 341 0
DWIDTH 4 0
BBX 2 13 1 -3
BITMAP
40
51
51
51
31
00
30
41
42
42
51
51
51
ENDCHAR
STARTCHAR section
ENCODING 167
SWIDTH 546 0
DWIDTH 6 0
BBX 6 12 0 -3
BITMAP
02CEA0
0C51D5
0D60D4
08F900
286DB0
6A01B6
2EA145
03CD70
0006C0
000062
04D261
02DE60
ENDCHAR
STARTCHAR dieresis
ENCODING 168
SWIDTH 393 0
DWIDTH 4 0
BBX 3 1 1 7
BITMAP
B770
ENDCHAR
STARTCHAR copyright
ENCODING 169
SWIDTH 1023 0
DWIDTH 11 0
BBX 11 10 0 -2
BITMAP
0018DFDA4000
02C72045C700
0A24DE600A30
260D42500280
521F00300090
610D71600080
4303DD400450
1B0000001B10
05C52026C300
003AEFD92000
ENDCHAR
STARTCHAR ordfeminine
ENCODING 170
SWIDTH 558 0
DWIDTH 6 0
BBX 6 6 0 3
BITMAP
2DE500
593C00
000D00
0AFF00
4B1E35
2ED7E5
ENDCHAR
STARTCHAR guillemotleft
ENCODING 171
SWIDTH 608 0
DWIDTH 7 0
BBX 7 10 0 -3
BITMAP
00000400
00032700
00191700
01B48400
3D93F300
1CC0AA00
01C71D00
001C1810
00037210
00004000
ENDCHAR
STARTCHAR logicalnot
ENCODING 172
SWIDTH 616 0
DWIDTH 7 0
BBX 7 3 0 2
BITMAP
6FEDCE20
00000530
00000410
ENDCHAR
STARTCHAR uni00AD
ENCODING 173
SWIDTH 436 0
DWIDTH 5 0
BBX 5 2 0 2
BITMAP
110100
3DFD20
ENDCHAR
STARTCHAR registered
ENCODING 174
SWIDTH 1048 0
DWIDTH 12 0
BBX 11 10 0 -2
BITMAP
0018CFEB5000
02DFFFE68900
0A23C0B80360
3601B2C60060
6202FF900040
6205D9B15040
466EEEBE8060
0B2001000450
03D720138900
0018DFEB6000
ENDCHAR
STARTCHAR macron
ENCODING 175
SWIDTH 382 0
DWIDTH 4 0
BBX 4 1 0 9
BITMAP
4DF8
ENDCHAR
STARTCHAR degree
ENCODING 176
SWIDTH 346 0
DWIDTH 4 0
BBX 4 3 0 8
BITMAP
2DC1
6363
2EC0
ENDCHAR
STARTCHAR plusminus
ENCODING 177
SWIDTH 580 0
DWIDTH 6 0
BBX 6 5 0 2
BITMAP
000300
001700
2FEEC8
000400
5ECCA0
ENDCHAR
STARTCHAR twosuperior
ENCODING 178
SWIDTH 365 0
DWIDTH 4 0
BBX 4 7 0 3
BITMAP
08E3
1289
0087
0380
5902
06D2
0010
ENDCHAR
STARTCHAR threesuperior
ENCODING 179
SWIDTH 371 0
DWIDTH 4 0
BBX 4 6 0 4
BITMAP
0010
7F80
2561
308A
616C
2DD4
ENDCHAR
STARTCHAR acute
ENCODING 180
SWIDTH 234 0
DWIDTH 3 0
BBX 2 2 0 8
BITMAP
0A
44
ENDCHAR
STARTCHAR mu
ENCODING 181
SWIDTH 634 0
DWIDTH 7 0
BBX 7 10 0 -4
BITMAP
00001000
8702F000
8600E200
8900D350
7E33F860
7BDD7FA0
6A000000
6B000000
5D000000
4F000000
ENDCHAR
STARTCHAR paragraph
ENCODING 182
SWIDTH 707 0
DWIDTH 8 0
BBX 8 13 0 -4
BITMAP
00001372
29DEFF30
CFF80D00
EFF70B00
8FF60B00
04D60C00
00860D00
00770E00
00680F10
00690F70
006A0FEA
02CB0000
3D840000
ENDCHAR
STARTCHAR periodcentered
ENCODING 183
SWIDTH 238 0
DWIDTH 3 0
BBX 2 2 0 4
BITMAP
4D
4D
ENDCHAR
STARTCHAR cedilla
ENCODING 184
SWIDTH 332 0
DWIDTH 4 0
BBX 4 4 0 -3
BITMAP
0400
0680
01D1
4EA0
ENDCHAR
STARTCHAR onesuperior
ENCODING 185
SWIDTH 336 0
DWIDTH 4 0
BBX 4 5 0 5
BITMAP
0170
16A0
03A0
5AC0
49C6
ENDCHAR
STARTCHAR ordmasculine
ENCODING 186
SWIDTH 503 0
DWIDTH 6 0
BBX 6 5 0 3
BITMAP
0AEC40
7317E0
9100B2
6B21B1
09ED50
ENDCHAR
STARTCHAR guillemotright
ENCODING 187
SWIDTH 778 0
DWIDTH 9 0
BBX 8 10 0 -3
BITMAP
00051000
42019000
1B204A10
03DA54D6
001DA5E7
00782E40
0390B400
0812A000
04063000
00040000
ENDCHAR
STARTCHAR onequarter
ENCODING 188
SWIDTH 876 0
DWIDTH 10 0
BBX 10 11 0 -1
BITMAP
0170000600
16A0004400
03A0027000
5AC0080000
49C6623400
000350B600
0018026960
00711CEFB0
0530023E20
160000EFF5
0000002000
ENDCHAR
STARTCHAR onehalf
ENCODING 189
SWIDTH 762 0
DWIDTH 8 0
BBX 8 11 0 -1
BITMAP
01700006
16A00044
03A00270
5AC00800
49C666E6
0003534D
0018004B
00710192
05302B12
160003E4
00000010
ENDCHAR
STARTCHAR threequarters
ENCODING 190
SWIDTH 922 0
DWIDTH 10 0
BBX 10 12 0 -1
BITMAP
0000000010
0010000160
7F80000700
2561006300
308A036000
616C080700
2DD4714E00
0004403C43
001707DFF4
0070011A90
0520006FFD
0000001100
ENDCHAR
STARTCHAR questiondown
ENCODING 191
SWIDTH 571 0
DWIDTH 6 0
BBX 6 11 0 -2
BITMAP
005E20
005E20
000000
001500
000600
009300
0B95E8
7F24EF
AF101E
8F814A
19EEB1
ENDCHAR
STARTCHAR Agrave
ENCODING 192
SWIDTH 784 0
DWIDTH 9 0
BBX 9 12 0 -1
BITMAP
02B0000000
0046000000
01EFC00000
0009F30000
0007B80000
00347D0000
00723F3000
00BEDF8000
02804DE000
092005F400
EF6001EC10
14600FFFB0
ENDCHAR
STARTCHAR Aacute
ENCODING 193
SWIDTH 784 0
DWIDTH 9 0
BBX 9 12 0 -1
BITMAP
0000900000
0005300000
01EFC00000
0009F30000
0007B80000
00347D0000
00723F3000
00BEDF8000
02804DE000
092005F400
EF6001EC10
14600FFFB0
ENDCHAR
STARTCHAR Acircumflex
ENCODING 194
SWIDTH 784 0
DWIDTH 9 0
BBX 9 12 0 -1
BITMAP
0005C40000
00444D3000
01EFC00000
0009F30000
0007B80000
00347D0000
00723F3000
00BEDF8000
02804DE000
092005F400
EF6001EC10
14600FFFB0
ENDCHAR
STARTCHAR Atilde
ENCODING 195
SWIDTH 784 0
DWIDTH 9 0
BBX 9 13 0 -1
BITMAP
00AC300000
0006E80000
0000000000
01EFC00000
0009F30000
0007B80000
00347D0000
00723F3000
00BEDF8000
02804DE000
092005F400
EF6001EC10
14600FFFB0
ENDCHAR
STARTCHAR Adieresis
ENCODING 196
SWIDTH 784 0
DWIDTH 9 0
BBX 9 12 0 -1
BITMAP
005C000000
005C580000
01EFC00000
0009F30000
0007B80000
00347D0000
00723F3000
00BEDF8000
02804DE000
092005F400
EF6001EC10
14600FFFB0
ENDCHAR
STARTCHAR Aring
ENCODING 197
SWIDTH 784 0
DWIDTH 9 0
BBX 9 13 0 -1
BITMAP
000BD20000
0028350000
000CD10000
01EFC00000
0009F30000
0007B80000
00347D0000
00723F3000
00BEDF8000
02804DE000
092005F400
EF6001EC10
14600FFFB0
ENDCHAR
STARTCHAR AE
ENCODING 198
SWIDTH 1172 0
DWIDTH 13 0
BBX 13 13 0 -3
BITMAP
00000000002000
000001259DD000
0000BFEE857000
0000047C002000
0000034E002000
0000033F264000
0000403FFD4000
0000DFEF505050
0006500F801190
0028000EC03BB0
04D2000EE75100
EEDE0067000000
00000010000000
ENDCHAR
STARTCHAR Ccedilla
ENCODING 199
SWIDTH 742 0
DWIDTH 8 0
BBX 8 15 0 -5
BITMAP
00000013
00000034
02AEFDE4
2DC313C6
8E100017
CC000000
EB000000
DD000004
9F500007
1DE61167
019EFD70
00005000
00009700
00002C00
0006E700
ENDCHAR
STARTCHAR Egrave
ENCODING 200
SWIDTH 557 0
DWIDTH 6 0
BBX 7 13 0 -2
BITMAP
0C200000
02800000
5458C700
4F810500
0D800000
0B912000
09FE1000
07A51000
05B10000
04C00110
04E00810
BFFEEE00
00124300
ENDCHAR
STARTCHAR Eacute
ENCODING 201
SWIDTH 557 0
DWIDTH 6 0
BBX 7 13 0 -2
BITMAP
00073000
00070000
5458C700
4F810500
0D800000
0B912000
09FE1000
07A51000
05B10000
04C00110
04E00810
BFFEEE00
00124300
ENDCHAR
STARTCHAR Ecircumflex
ENCODING 202
SWIDTH 557 0
DWIDTH 6 0
BBX 7 13 0 -2
BITMAP
006B3000
0435D200
5458C700
4F810500
0D800000
0B912000
09FE1000
07A51000
05B10000
04C00110
04E00810
BFFEEE00
00124300
ENDCHAR
STARTCHAR Edieresis
ENCODING 203
SWIDTH 557 0
DWIDTH 6 0
BBX 7 13 0 -2
BITMAP
07A00000
07A77000
5458C700
4F810500
0D800000
0B912000
09FE1000
07A51000
05B10000
04C00110
04E00810
BFFEEE00
00124300
ENDCHAR
STARTCHAR Igrave
ENCODING 204
SWIDTH 438 0
DWIDTH 5 0
BBX 7 14 -1 -2
BITMAP
00B20000
00280000
2DCCDF50
02BF7000
007F1000
007D0000
007B0000
006A0000
00780000
00770000
00770000
00880000
06FFC000
47200000
ENDCHAR
STARTCHAR Iacute
ENCODING 205
SWIDTH 438 0
DWIDTH 5 0
BBX 7 13 -1 -2
BITMAP
00008100
2DCEFF50
02BF7000
007F1000
007D0000
007B0000
006A0000
00780000
00770000
00770000
00880000
06FFC000
47200000
ENDCHAR
STARTCHAR Icircumflex
ENCODING 206
SWIDTH 438 0
DWIDTH 5 0
BBX 7 14 -1 -2
BITMAP
000B8100
01628B00
2DCCDF50
02BF7000
007F1000
007D0000
007B0000
006A0000
00780000
00770000
00770000
00880000
06FFC000
47200000
ENDCHAR
STARTCHAR Idieresis
ENCODING 207
SWIDTH 438 0
DWIDTH 5 0
BBX 7 14 -1 -2
BITMAP
00D40000
00D4D100
2DCCDF50
02BF7000
007F1000
007D0000
007B0000
006A0000
00780000
00770000
00770000
00880000
06FFC000
47200000
ENDCHAR
STARTCHAR Eth
ENCODING 208
SWIDTH 730 0
DWIDTH 8 0
BBX 9 10 0 -3
BITMAP
5BCEFC6000
17E13CF700
04E002FE00
04E100DF20
7EFB00DF10
25E002FB00
06F13CD200
0BFEB61000
7720000000
1000000000
ENDCHAR
STARTCHAR Ntilde
ENCODING 209
SWIDTH 799 0
DWIDTH 9 0
BBX 9 14 0 -3
BITMAP
0005E70000
00003CE100
0000000000
0110000120
EFE407FF90
09FF404700
064FF41500
0506FE7400
05007FF400
050008F300
0500009200
0A30000000
CFE4000000
0032000000
ENDCHAR
STARTCHAR Ograve
ENCODING 210
SWIDTH 747 0
DWIDTH 8 0
BBX 9 11 0 0
BITMAP
00C2000000
0028000000
0000000000
03BEEB3000
2E612AF400
AA0000DD00
E700008F20
D800007F10
AD00009D00
2FA215E500
02BEEC4000
ENDCHAR
STARTCHAR Oacute
ENCODING 211
SWIDTH 747 0
DWIDTH 8 0
BBX 9 11 0 0
BITMAP
0000900000
0005300000
0000000000
03BEEB3000
2E612AF400
AA0000DD00
E700008F20
D800007F10
AD00009D00
2FA215E500
02BEEC4000
ENDCHAR
STARTCHAR Ocircumflex
ENCODING 212
SWIDTH 747 0
DWIDTH 8 0
BBX 9 11 0 0
BITMAP
000A920000
01527C0000
0000000000
03BEEB3000
2E612AF400
AA0000DD00
E700008F20
D800007F10
AD00009D00
2FA215E500
02BEEC4000
ENDCHAR
STARTCHAR Otilde
ENCODING 213
SWIDTH 747 0
DWIDTH 8 0
BBX 9 11 0 0
BITMAP
007E500000
0004DB0000
0000000000
03BEEB3000
2E612AF400
AA0000DD00
E700008F20
D800007F10
AD00009D00
2FA215E500
02BEEC4000
ENDCHAR
STARTCHAR Odieresis
ENCODING 214
SWIDTH 747 0
DWIDTH 8 0
BBX 9 11 0 0
BITMAP
007B000000
006A770000
0000000000
03BEEB3000
2E612AF400
AA0000DD00
E700008F20
D800007F10
AD00009D00
2FA215E500
02BEEC4000
ENDCHAR
STARTCHAR multiply
ENCODING 215
SWIDTH 541 0
DWIDTH 6 0
BBX 6 7 0 0
BITMAP
000012
000081
062520
00A700
026350
080000
420000
ENDCHAR
STARTCHAR Oslash
ENCODING 216
SWIDTH 747 0
DWIDTH 8 0
BBX 9 11 0 -1
BITMAP
0000000100
0000001600
03BEEB9100
2E612AF400
AA0018DD00
E700818F20
E807107F10
AD72009D00
3EB215E500
08BEEC4000
4200000000
ENDCHAR
STARTCHAR Ugrave
ENCODING 217
SWIDTH 690 0
DWIDTH 8 0
BBX 9 11 0 0
BITMAP
000B200000
0002800000
0000000000
136B900000
EFF8AEDD20
1CF103C000
0AE0007000
09E0006000
07F1006000
02F9165000
005DE90000
ENDCHAR
STARTCHAR Uacute
ENCODING 218
SWIDTH 690 0
DWIDTH 8 0
BBX 9 10 0 0
BITMAP
0000009000
0000044000
136B900000
EFF8AEDD20
1CF103C000
0AE0007000
09E0006000
07F1006000
02F9165000
005DE90000
ENDCHAR
STARTCHAR Ucircumflex
ENCODING 219
SWIDTH 690 0
DWIDTH 8 0
BBX 9 11 0 0
BITMAP
0001C71000
001619A000
0000000000
136B900000
EFF8AEDD20
1CF103C000
0AE0007000
09E0006000
07F1006000
02F9165000
005DE90000
ENDCHAR
STARTCHAR Udieresis
ENCODING 220
SWIDTH 690 0
DWIDTH 8 0
BBX 9 11 0 0
BITMAP
000D500000
000C4C1000
0000000000
136B900000
EFF8AEDD20
1CF103C000
0AE0007000
09E0006000
07F1006000
02F9165000
005DE90000
ENDCHAR
STARTCHAR Yacute
ENCODING 221
SWIDTH 796 0
DWIDTH 9 0
BBX 10 13 0 -2
BITMAP
000000A000
0136045410
CFE6002DFA
18F4000710
007E406000
0009FB2000
0000D90000
0000980000
0000980000
0000A90000
0001DB0000
005FFF5000
0000134000
ENDCHAR
STARTCHAR Thorn
ENCODING 222
SWIDTH 479 0
DWIDTH 5 0
BBX 6 12 0 -2
BITMAP
9FF500
1C6000
0AFEA1
0A33F6
0A22F6
0BEFB1
0B3000
0C3000
0D3000
1E5000
9FE200
101100
ENDCHAR
STARTCHAR germandbls
ENCODING 223
SWIDTH 591 0
DWIDTH 7 0
BBX 8 12 -1 -1
BITMAP
04ED3000
0A17B000
0901C000
0A028000
0B020000
0A6EE910
08616EC0
05A004F3
02E100C5
00F5D3B2
03E6CE70
15000000
ENDCHAR
STARTCHAR agrave
ENCODING 224
SWIDTH 527 0
DWIDTH 6 0
BBX 7 10 0 -1
BITMAP
76000000
08200000
0BE80000
473E3000
2D2C7000
000A9000
4CFFC000
C718E000
7EC5F520
0000BD00
ENDCHAR
STARTCHAR aacute
ENCODING 225
SWIDTH 527 0
DWIDTH 6 0
BBX 7 10 0 -1
BITMAP
00190000
00530000
0BE80000
473E3000
2D2C7000
000A9000
4CFFC000
C718E000
7EC5F520
0000BD00
ENDCHAR
STARTCHAR acircumflex
ENCODING 226
SWIDTH 527 0
DWIDTH 6 0
BBX 7 10 0 -1
BITMAP
01B71000
1619A000
0BE80000
473E3000
2D2C7000
000A9000
4CFFC000
C718E000
7EC5F520
0000BD00
ENDCHAR
STARTCHAR atilde
ENCODING 227
SWIDTH 527 0
DWIDTH 6 0
BBX 7 10 0 -1
BITMAP
0AC30000
006E8000
0BE80000
473E3000
2D2C7000
000A9000
4CFFC000
C718E000
7EC5F520
0000BD00
ENDCHAR
STARTCHAR adieresis
ENCODING 228
SWIDTH 527 0
DWIDTH 6 0
BBX 7 9 0 -1
BITMAP
0B770000
0BE80000
473E3000
2D2C7000
000A9000
4CFFC000
C718E000
7EC5F520
0000BD00
ENDCHAR
STARTCHAR aring
ENCODING 229
SWIDTH 527 0
DWIDTH 6 0
BBX 7 11 0 -1
BITMAP
04E90000
08280000
04E80000
0BE80000
473E3000
2D2C7000
000A9000
4CFFC000
C718E000
7EC5F520
0000BD00
ENDCHAR
STARTCHAR ae
ENCODING 230
SWIDTH 700 0
DWIDTH 8 0
BBX 8 8 0 -1
BITMAP
00007EB0
4E9431D3
75A815E1
007FFC40
1AFA0000
965E1005
C26EA136
6E74DFB1
ENDCHAR
STARTCHAR ccedilla
ENCODING 231
SWIDTH 437 0
DWIDTH 5 0
BBX 5 9 0 -2
BITMAP
08ED20
673E40
B20000
C30150
8B1270
1BFC20
007200
032C00
03E900
ENDCHAR
STARTCHAR egrave
ENCODING 232
SWIDTH 434 0
DWIDTH 5 0
BBX 5 9 0 0
BITMAP
2B0000
046000
000000
08ED40
6A1980
BFFC20
C90050
8E3270
1AEC20
ENDCHAR
STARTCHAR eacute
ENCODING 233
SWIDTH 434 0
DWIDTH 5 0
BBX 5 9 0 0
BITMAP
001900
005200
000000
08ED40
6A1980
BFFC20
C90050
8E3270
1AEC20
ENDCHAR
STARTCHAR ecircumflex
ENCODING 234
SWIDTH 434 0
DWIDTH 5 0
BBX 5 9 0 0
BITMAP
01C710
262A90
000000
08ED40
6A1980
BFFC20
C90050
8E3270
1AEC20
ENDCHAR
STARTCHAR edieresis
ENCODING 235
SWIDTH 434 0
DWIDTH 5 0
BBX 5 8 0 0
BITMAP
077B00
000000
08ED40
6A1980
BFFC20
C90050
8E3270
1AEC20
ENDCHAR
STARTCHAR igrave
ENCODING 236
SWIDTH 301 0
DWIDTH 3 0
BBX 5 8 -1 1
BITMAP
490000
065000
0CF700
01E500
00E300
00E200
01E300
0BEF10
ENDCHAR
STARTCHAR iacute
ENCODING 237
SWIDTH 301 0
DWIDTH 3 0
BBX 4 8 0 1
BITMAP
0280
0610
CF70
1E50
0E30
0E20
1E30
BEF1
ENDCHAR
STARTCHAR icircumflex
ENCODING 238
SWIDTH 301 0
DWIDTH 3 0
BBX 5 8 -1 1
BITMAP
01B710
1619A0
0CF700
01E500
00E300
00E200
01E300
0BEF10
ENDCHAR
STARTCHAR idieresis
ENCODING 239
SWIDTH 301 0
DWIDTH 3 0
BBX 4 7 0 1
BITMAP
68C0
CF70
1E50
0E30
0E20
1E30
BEF1
ENDCHAR
STARTCHAR eth
ENCODING 240
SWIDTH 476 0
DWIDTH 5 0
BBX 7 10 -1 -1
BITMAP
00003000
1AED3000
7417D100
00207800
00003C00
009EDF00
04D15F10
06B00D00
03F41A00
007ED300
ENDCHAR
STARTCHAR ntilde
ENCODING 241
SWIDTH 584 0
DWIDTH 6 0
BBX 7 10 0 -1
BITMAP
007E5000
0004DB00
05000000
4E28E600
1D627D00
09803E00
05803D00
03A06B00
2EFBFA00
01112720
ENDCHAR
STARTCHAR ograve
ENCODING 242
SWIDTH 400 0
DWIDTH 4 0
BBX 8 9 0 2
BITMAP
000001E3
00000085
77000052
08300070
00004A20
3D7EA200
B70D1000
C54F3000
4DE90000
ENDCHAR
STARTCHAR oacute
ENCODING 243
SWIDTH 400 0
DWIDTH 4 0
BBX 8 9 0 2
BITMAP
000001E3
00000085
00190052
00620070
00004A20
3D7EA200
B70D1000
C54F3000
4DE90000
ENDCHAR
STARTCHAR ocircumflex
ENCODING 244
SWIDTH 400 0
DWIDTH 4 0
BBX 8 9 0 2
BITMAP
000001E3
00000085
00000052
02C60070
252BBA20
3D7EA200
B70D1000
C54F3000
4DE90000
ENDCHAR
STARTCHAR otilde
ENCODING 245
SWIDTH 400 0
DWIDTH 4 0
BBX 8 9 0 2
BITMAP
000001E3
00000085
00000052
0BC30070
007EBA20
3D7EA200
B70D1000
C54F3000
4DE90000
ENDCHAR
STARTCHAR odieresis
ENCODING 246
SWIDTH 400 0
DWIDTH 4 0
BBX 8 9 0 2
BITMAP
000001E3
00000085
00000052
097A0070
00004A20
3D7EA200
B70D1000
C54F3000
4DE90000
ENDCHAR
STARTCHAR divide
ENCODING 247
SWIDTH 592 0
DWIDTH 7 0
BBX 6 5 0 1
BITMAP
007700
000001
6FEDDC
000000
006800
ENDCHAR
STARTCHAR oslash
ENCODING 248
SWIDTH 396 0
DWIDTH 4 0
BBX 5 7 0 0
BITMAP
005000
3DE800
B58F10
CA3F10
4EE600
070000
120000
ENDCHAR
STARTCHAR ugrave
ENCODING 249
SWIDTH 744 0
DWIDTH 8 0
BBX 9 8 0 0
BITMAP
0086000000
0008200000
1750EF5000
BE800A7000
07A0088000
04E009B000
01F629FE20
007EB13100
ENDCHAR
STARTCHAR uacute
ENCODING 250
SWIDTH 744 0
DWIDTH 8 0
BBX 9 8 0 0
BITMAP
0001900000
0005200000
1750EF5000
BE800A7000
07A0088000
04E009B000
01F629FE20
007EB13100
ENDCHAR
STARTCHAR ucircumflex
ENCODING 251
SWIDTH 744 0
DWIDTH 8 0
BBX 9 8 0 0
BITMAP
002C610000
0252A80000
1750EF5000
BE800A7000
07A0088000
04E009B000
01F629FE20
007EB13100
ENDCHAR
STARTCHAR udieresis
ENCODING 252
SWIDTH 744 0
DWIDTH 8 0
BBX 9 8 0 0
BITMAP
003AB10000
0000000000
1750EF5000
BE800A7000
07A0088000
04E009B000
01F629FE20
007EB13100
ENDCHAR
STARTCHAR yacute
ENCODING 253
SWIDTH 659 0
DWIDTH 7 0
BBX 8 12 0 -5
BITMAP
00005500
15B48010
CF80DEE2
1F401D80
0C700C70
07D23D60
01BE8B40
00000C10
00000C00
05E45700
06C9C100
06EC3000
ENDCHAR
STARTCHAR thorn
ENCODING 254
SWIDTH 514 0
DWIDTH 6 0
BBX 7 16 -1 -6
BITMAP
00910000
7F900000
08700000
06800000
05DED400
04D19E10
03B02F50
03C01F60
02F26F40
02FBFA00
02F00000
02F10000
02F20000
02F30000
04F70000
2FFFA000
ENDCHAR
STARTCHAR ydieresis
ENCODING 255
SWIDTH 659 0
DWIDTH 7 0
BBX 8 13 0 -5
BITMAP
000C7700
00000000
15B40010
CF80DEE2
1F401D80
0C700C70
07D23D60
01BE8B40
00000C10
00000C00
05E45700
06C9C100
06EC3000
ENDCHAR
STARTCHAR dotlessi
ENCODING 305
SWIDTH 301 0
DWIDTH 3 0
BBX 4 6 0 1
BITMAP
CF70
1E50
0E30
0E20
1E30
BEF1
ENDCHAR
STARTCHAR OE
ENCODING 338
SWIDTH 1132 0
DWIDTH 12 0
BBX 13 11 0 -2
BITMAP
00000000039200
02AEEA6FFED200
2E8117DF501300
AB00007F501000
D900001F626000
DB00000EFB8000
9F40001F804000
1EE512AE900040
02AEFB3DB02850
0000006EFFFF60
00000284200100
ENDCHAR
STARTCHAR oe
ENCODING 339
SWIDTH 798 0
DWIDTH 9 0
BBX 9 5 0 1
BITMAP
2BEA19EA00
962CDA2C00
C504FFE750
9C24FC2260
1AEC4DFC10
ENDCHAR
STARTCHAR circumflex
ENCODING 710
SWIDTH 483 0
DWIDTH 5 0
BBX 5 2 0 7
BITMAP
01B710
1619A0
ENDCHAR
STARTCHAR caron
ENCODING 711
SWIDTH 428 0
DWIDTH 5 0
BBX 4 3 0 8
BITMAP
3104
0982
0270
ENDCHAR
STARTCHAR ring
ENCODING 730
SWIDTH 330 0
DWIDTH 4 0
BBX 4 3 0 9
BITMAP
2DB0
6381
3EA0
ENDCHAR
STARTCHAR tilde
ENCODING 732
SWIDTH 433 0
DWIDTH 5 0
BBX 5 2 0 8
BITMAP
4E8000
02BE10
ENDCHAR
STARTCHAR mu.dup1
ENCODING 956
SWIDTH 634 0
DWIDTH 7 0
BBX 7 10 0 -4
BITMAP
00001000
8702F000
8600E200
8900D350
7E33F860
7BDD7FA0
6A000000
6B000000
5D000000
4F000000
ENDCHAR
STARTCHAR endash
ENCODING 8211
SWIDTH 436 0
DWIDTH 5 0
BBX 5 2 0 2
BITMAP
110100
3DFD20
ENDCHAR
STARTCHAR emdash
ENCODING 8212
SWIDTH 651 0
DWIDTH 7 0
BBX 7 2 0 2
BITMAP
0369CE80
24321100
ENDCHAR
STARTCHAR quoteleft
ENCODING 8216
SWIDTH 287 0
DWIDTH 3 0
BBX 3 4 0 5
BITMAP
0620
3C00
6F40
4E30
ENDCHAR
STARTCHAR quoteright
ENCODING 8217
SWIDTH 291 0
DWIDTH 3 0
BBX 3 4 0 5
BITMAP
4E50
3F90
0480
0610
ENDCHAR
STARTCHAR quotesinglbase
ENCODING 8218
SWIDTH 272 0
DWIDTH 3 0
BBX 3 4 0 -2
BITMAP
4E40
3E60
0620
0500
ENDCHAR
STARTCHAR quotedblleft
ENCODING 8220
SWIDTH 445 0
DWIDTH 5 0
BBX 5 4 0 5
BITMAP
034600
1B2C10
6E3E40
4E3000
ENDCHAR
STARTCHAR quotedblright
ENCODING 8221
SWIDTH 444 0
DWIDTH 5 0
BBX 5 4 0 5
BITMAP
4E5E30
3E7F40
082A10
064300
ENDCHAR
STARTCHAR quotedblbase
ENCODING 8222
SWIDTH 482 0
DWIDTH 5 0
BBX 5 4 0 -3
BITMAP
4E5D90
4F9CA0
066550
051700
ENDCHAR
STARTCHAR bullet
ENCODING 8226
SWIDTH 351 0
DWIDTH 4 0
BBX 4 3 0 3
BITMAP
2DC1
6FF4
2EC1
ENDCHAR
STARTCHAR guilsinglleft
ENCODING 8249
SWIDTH 465 0
DWIDTH 5 0
BBX 5 7 0 -1
BITMAP
000400
004400
04A000
3F8000
04D300
002B00
000240
ENDCHAR
STARTCHAR guilsinglright
ENCODING 8250
SWIDTH 449 0
DWIDTH 5 0
BBX 5 7 0 -1
BITMAP
050000
084000
01D700
00DB10
079000
1A0000
520000
ENDCHAR
STARTCHAR fraction
ENCODING 8260
SWIDTH 406 0
DWIDTH 4 0
BBX 8 11 -2 0
BITMAP
00000001
00000016
00000080
00000630
00003600
00018000
00081000
00540000
01700000
07000000
52000000
ENDCHAR
STARTCHAR foursuperior
ENCODING 8308
SWIDTH 473 0
DWIDTH 5 0
BBX 5 7 0 3
BITMAP
007000
03E000
03C540
7DFF50
119A00
05FFE0
011000
ENDCHAR
STARTCHAR Euro
ENCODING 8364
SWIDTH 799 0
DWIDTH 9 0
BBX 10 10 0 -1
BITMAP
0000000012
0005CFD880
006F711A70
02F9000240
06F4430000
4CF6510000
6DF3000000
26F4000400
01DC315500
002AEE8000
ENDCHAR
STARTCHAR minus
ENCODING 8722
SWIDTH 436 0
DWIDTH 5 0
BBX 5 2 0 2
BITMAP
110100
3DFD20
ENDCHAR
STARTCHAR f_f
ENCODING 64256
SWIDTH 467 0
DWIDTH 5 0
BBX 7 17 0 -4
BITMAP
009E5000
044D6000
0703DD20
080B3D60
09385E30
0A470000
0B671000
6FEEB000
1C380000
0D1C0000
0D1D2000
0C399000
0B68F900
099A4000
08C00000
0AF40000
AEFF4000
ENDCHAR
STARTCHAR .notdef
ENCODING -1
SWIDTH 270 0
DWIDTH 3 0
BBX 3 7 0 0
BITMAP
9F80
1010
1010
1010
1010
1010
9F80
ENDCHAR
STARTCHAR .null
ENCODING -1
SWIDTH 0 0
DWIDTH 0 0
BBX 1 1 0 0
BITMAP
00
ENDCHAR
STARTCHAR nonmarkingreturn
ENCODING -1
SWIDTH 270 0
DWIDTH 3 0
BBX 1 1 0 0
BITMAP
00
ENDCHAR
STARTCHAR dieresis.case
ENCODING -1
SWIDTH 393 0
DWIDTH 4 0
BBX 4 2 0 8
BITMAP
4D00
4C59
ENDCHAR
STARTCHAR o.cmp
ENCODING -1
SWIDTH 400 0
DWIDTH 4 0
BBX 8 9 0 2
BITMAP
000001E3
00000085
00000052
00000070
00004A20
3D7EA200
B70D1000
C54F3000
4DE90000
ENDCHAR
STARTCHAR n_n
ENCODING -1
SWIDTH 1024 0
DWIDTH 11 0
BBX 12 8 0 -1
BITMAP
2A0000000000
CF2AE6BD0000
0C927D3D9E70
08903E3F36D0
05803C4D07B0
03A06ABEFFD1
2EFAFD300131
011105400000
ENDCHAR
STARTCHAR a_a
ENCODING -1
SWIDTH 911 0
DWIDTH 10 0
BBX 11 8 0 0
BITMAP
00000AEC2000
00001E289000
4ED10003C000
94764DECD000
0038CC56E000
3CFAD558E000
B95E7ED8F240
8F88E800BE20
ENDCHAR
STARTCHAR t_h
ENCODING -1
SWIDTH 854 0
DWIDTH 9 0
BBX 11 14 -1 -3
BITMAP
0009FF500000
00000D500000
00000A400000
00033B300000
004D1B200000
2DFFFFD00000
017A0D6ED500
00880E717E00
00991F1D3F20
005E6D2B3F10
0007DFD55D00
0009FFF3BA00
0000000EFC00
000000000850
ENDCHAR
STARTCHAR s_s
ENCODING -1
SWIDTH 654 0
DWIDTH 7 0
BBX 8 11 -1 -2
BITMAP
00000103
004ECCEA
00867D17
00280C01
00066850
020096D1
08004B98
186AAA6D
006FC26F
000722CB
0002CEB2
ENDCHAR
STARTCHAR t_t
ENCODING -1
SWIDTH 569 0
DWIDTH 6 0
BBX 7 10 0 -1
BITMAP
000D3300
04AFB000
DFEE1000
0E6C0000
0F4C0000
0F2E0000
0F2C7A20
0C43DD10
06B1B700
008ED300
ENDCHAR
STARTCHAR e_e
ENCODING -1
SWIDTH 782 0
DWIDTH 9 0
BBX 9 6 0 0
BITMAP
2CE67EE400
B64AE23900
EEA5D04600
AC31D9B230
18DFEE2350
000009EC10
ENDCHAR
STARTCHAR o_o
ENCODING -1
SWIDTH 751 0
DWIDTH 8 0
BBX 12 10 0 1
BITMAP
0000000002E1
0000000000A3
000000000060
000000000170
000000015B10
1AEFBA8EA100
8B14E12A0000
C504E16F0000
A807DED60000
2BEB10000000
ENDCHAR
STARTCHAR l_l
ENCODING -1
SWIDTH 573 0
DWIDTH 6 0
BBX 8 11 -1 -2
BITMAP
03B6FE00
3CF07E00
03F05E00
02F04E00
02F03F00
02F03F10
02F13F20
03F12F60
04F27EF4
7FF40000
02581000
ENDCHAR
STARTCHAR z_z
ENCODING -1
SWIDTH 875 0
DWIDTH 10 0
BBX 11 7 -1 -1
BITMAP
0003FFF70000
04FFF5A10000
031AA4800000
002D2C124000
00B57FFF5A90
05A000000890
1EEFFFFFEA10
ENDCHAR
STARTCHAR j_j
ENCODING -1
SWIDTH 577 0
DWIDTH 6 0
BBX 9 15 -2 -7
BITMAP
00000B7000
00000C6000
0004C14000
00003FF300
005FF9F800
0003F99B00
00009B4D00
00005C0F00
00003C0D10
00002B0B20
0AE1390A10
3B50760B00
2913F20A00
08EDF93600
00008E9000
ENDCHAR
STARTCHAR f_b
ENCODING -1
SWIDTH 731 0
DWIDTH 8 0
BBX 9 14 -1 -2
BITMAP
0007EA0000
00291B2000
0073AE1000
00A17A3000
02E6FF5000
5DF21C5000
00E3094000
00E3094000
00D409DE70
00D40966F0
00D50A47E0
00D72FFF70
01EFC11000
0420000000
ENDCHAR
STARTCHAR f_k
ENCODING -1
SWIDTH 708 0
DWIDTH 8 0
BBX 8 13 0 -2
BITMAP
00580000
1DEFE400
0168AA00
0659E600
0A492100
5D4A0EB0
1C4B9600
0C3FD000
0D3DD313
1D3D7C17
9F5F2AE5
06FFF900
01101000
ENDCHAR
STARTCHAR f_h
ENCODING -1
SWIDTH 873 0
DWIDTH 10 0
BBX 11 14 -1 -2
BITMAP
0006EA000000
00191B200000
00629E200000
009179B00000
00B7FFA00000
06FA25800000
59F205700000
00E3068CE500
00D307C19B00
00D409708B00
00D50C50DF80
00D7EFB12010
03FF91300000
053000000000
ENDCHAR
ENDFONT
